<svg width="800px" height="800px" viewBox="0 0 1024 1024" xmlns="http://www.w3.org/2000/svg">
    <path class="calendar-base" d="M106.666667 810.666667V298.666667h810.666666v512c0 46.933333-38.4 85.333333-85.333333 85.333333H192c-46.933333 0-85.333333-38.4-85.333333-85.333333z" fill="white" />
    <path d="M917.333333 213.333333v128H106.666667v-128c0-46.933333 38.4-85.333333 85.333333-85.333333h640c46.933333 0 85.333333 38.4 85.333333 85.333333z" fill="#F44336" />
    <path d="M704 213.333333m-64 0a64 64 0 1 0 128 0 64 64 0 1 0-128 0Z" fill="#B71C1C" />
    <path d="M320 213.333333m-64 0a64 64 0 1 0 128 0 64 64 0 1 0-128 0Z" fill="#B71C1C" />
    <path d="M277.333333 426.666667h85.333334v85.333333h-85.333334zM405.333333 426.666667h85.333334v85.333333h-85.333334zM533.333333 426.666667h85.333334v85.333333h-85.333334zM661.333333 426.666667h85.333334v85.333333h-85.333334zM277.333333 554.666667h85.333334v85.333333h-85.333334zM405.333333 554.666667h85.333334v85.333333h-85.333334zM533.333333 554.666667h85.333334v85.333333h-85.333334zM661.333333 554.666667h85.333334v85.333333h-85.333334zM277.333333 682.666667h85.333334v85.333333h-85.333334zM405.333333 682.666667h85.333334v85.333333h-85.333334zM533.333333 682.666667h85.333334v85.333333h-85.333334zM661.333333 682.666667h85.333334v85.333333h-85.333334z" fill="#90A4AE" />
</svg>
